<?xml version="1.0" encoding="utf-8"?>
<!-- Generator: Adobe Illustrator 21.0.2, SVG Export Plug-In . SVG Version: 6.00 Build 0)  -->
<svg version="1.1" id="Layer_1" xmlns="http://www.w3.org/2000/svg" xmlns:xlink="http://www.w3.org/1999/xlink" x="0px" y="0px"
	 viewBox="0 0 60 60" style="enable-background:new 0 0 60 60;" xml:space="preserve">
<style type="text/css">
	.st0{fill:#022C5E;}
	.st1{fill:#9AC5E8;}
	.st2{fill:#319CF4;}

.st0 {
    animation-name: myAnimation;
    animation-duration: 2s;
    animation-timing-function: ease-out;
    animation-iteration-count: infinite;
}
@keyframes myAnimation {
  20% { opacity: 1; }
  50% { opacity: 0; }
  100% { opacity: 1; }
}

.st1 {
    animation-name: myAnimation1;
    animation-duration: 2s;
    animation-iteration-count: infinite;
    animation-timing-function: ease-out;
}
@keyframes myAnimation1 {
  10% { opacity: 1; }
  40% { opacity: 0; }
  90% { opacity: 1; }
}
.st2 {
    animation-name: myAnimation2;
    animation-duration: 2s;
    animation-iteration-count: infinite;
    animation-timing-function: ease-out;
}

@keyframes myAnimation2 {
  0% { opacity: 1; }
  30% { opacity: 0; }
  80% { opacity: 1; }
}
</style>
<g>
	<path class="st0" d="M52,14.5c-10.3-10.3-27-10.3-37.4,0c-10.3,10.3-10.3,27,0,37.4c3.7,3.7,8.2,6,12.9,7.1c-6.6-0.6-13-3.4-18-8.4
		C-1.8,39.3-1.8,20.9,9.5,9.5c11.3-11.3,29.7-11.3,41.1,0c4.8,4.8,7.6,10.8,8.3,17C57.8,22.2,55.5,18,52,14.5z"/>
	<path class="st1" d="M56.2,37.9c0-12.3-10-22.3-22.3-22.3c-12.3,0-22.3,10-22.3,22.3c0,4.4,1.3,8.5,3.5,12
		c-3.6-4.3-5.8-9.8-5.8-15.8c0-13.6,11-24.5,24.5-24.5c13.6,0,24.5,11,24.5,24.5c0,5.7-2,11-5.2,15.1C55.1,45.9,56.2,42.1,56.2,37.9
		z"/>
	<path class="st2" d="M44.6,53.8c7.2-7.2,7.2-18.8,0-25.9c-7.2-7.2-18.8-7.2-25.9,0c-2.6,2.6-4.2,5.7-4.9,9c0.4-4.6,2.3-9,5.8-12.5
		c7.9-7.9,20.7-7.9,28.5,0c7.9,7.9,7.9,20.7,0,28.5c-3.3,3.3-7.5,5.2-11.8,5.8C39.3,57.8,42.2,56.2,44.6,53.8z"/>
</g>
</svg>
